<svg width="474" height="152" viewBox="0 0 474 152" fill="none" xmlns="http://www.w3.org/2000/svg">
  <path d="M35.632 82.072L31.216 72.088L29.2 82.072L22.672 115H12.016L26.608 44.44H27.76L47.152 82.552L52.912 95.32L58.672 82.552L77.68 44.44H78.736L93.904 115H83.344L76.24 82.072L74.128 72.088L70.288 82.072L53.2 115H52.624L35.632 82.072ZM123.235 115.96C118.691 115.96 114.659 114.936 111.139 112.888C107.619 110.84 104.899 108.056 102.979 104.536C101.059 101.016 100.099 97.112 100.099 92.824C100.099 88.6 101.027 84.728 102.883 81.208C104.803 77.688 107.523 74.904 111.043 72.856C114.563 70.808 118.627 69.784 123.235 69.784C127.843 69.784 131.875 70.808 135.331 72.856C138.851 74.904 141.539 77.688 143.395 81.208C145.315 84.728 146.275 88.6 146.275 92.824C146.275 97.112 145.315 101.016 143.395 104.536C141.475 108.056 138.755 110.84 135.235 112.888C131.779 114.936 127.779 115.96 123.235 115.96ZM123.523 107.512C127.235 107.512 130.147 106.136 132.259 103.384C134.435 100.632 135.523 97.176 135.523 93.016C135.523 88.856 134.371 85.368 132.067 82.552C129.763 79.672 126.723 78.232 122.947 78.232C119.299 78.232 116.355 79.64 114.115 82.456C111.939 85.272 110.851 88.792 110.851 93.016C110.851 97.112 112.035 100.568 114.403 103.384C116.771 106.136 119.811 107.512 123.523 107.512ZM157.347 70.936H167.523L167.619 79C168.835 76.312 170.755 74.104 173.379 72.376C176.003 70.648 179.075 69.784 182.595 69.784C187.139 69.784 190.627 70.744 193.059 72.664C195.491 74.52 197.123 77.144 197.955 80.536C198.787 83.928 199.203 88.344 199.203 93.784V115H188.835V94.072C188.835 88.504 188.291 84.504 187.203 82.072C186.115 79.576 183.875 78.328 180.483 78.328C178.563 78.328 176.611 78.936 174.627 80.152C172.643 81.304 170.979 83 169.635 85.24C168.355 87.48 167.715 90.104 167.715 93.112V115H157.347V70.936ZM216.406 79.384H208.63V70.936H216.406V52.984L226.87 50.68V70.936H237.046V79.384H226.87V115H216.406V79.384ZM246.24 70.936H256.992V115H246.24V70.936ZM251.52 62.68C249.536 62.68 247.872 62.008 246.528 60.664C245.184 59.32 244.512 57.656 244.512 55.672C244.512 53.88 245.184 52.344 246.528 51.064C247.872 49.784 249.536 49.144 251.52 49.144C253.44 49.144 255.072 49.784 256.416 51.064C257.76 52.344 258.432 53.88 258.432 55.672C258.432 57.656 257.76 59.32 256.416 60.664C255.136 62.008 253.504 62.68 251.52 62.68ZM271.347 70.936H281.523L281.619 79C282.835 76.312 284.755 74.104 287.379 72.376C290.003 70.648 293.075 69.784 296.595 69.784C301.139 69.784 304.627 70.744 307.059 72.664C309.491 74.52 311.123 77.144 311.955 80.536C312.787 83.928 313.203 88.344 313.203 93.784V115H302.835V94.072C302.835 88.504 302.291 84.504 301.203 82.072C300.115 79.576 297.875 78.328 294.483 78.328C292.563 78.328 290.611 78.936 288.627 80.152C286.643 81.304 284.979 83 283.635 85.24C282.355 87.48 281.715 90.104 281.715 93.112V115H271.347V70.936ZM347.974 138.04C344.71 138.04 341.478 137.592 338.278 136.696C335.142 135.8 332.902 134.968 331.558 134.2L333.862 124.6C338.086 127.352 342.694 128.728 347.686 128.728C351.526 128.728 354.758 127.8 357.382 125.944C360.006 124.088 361.35 120.472 361.414 115.096V107.224C360.07 109.72 357.894 111.8 354.886 113.464C351.878 115.128 348.55 115.96 344.902 115.96C341.062 115.96 337.542 115.032 334.342 113.176C331.142 111.256 328.614 108.536 326.758 105.016C324.902 101.496 323.974 97.4 323.974 92.728C323.974 88.248 324.838 84.28 326.566 80.824C328.358 77.304 330.886 74.584 334.15 72.664C337.414 70.744 341.222 69.784 345.574 69.784C348.134 69.784 350.534 70.232 352.774 71.128C355.014 72.024 356.902 73.144 358.438 74.488C360.038 75.768 361.094 77.048 361.606 78.328L361.798 70.936H371.59V114.712C371.59 122.2 369.67 127.96 365.83 131.992C361.99 136.024 356.038 138.04 347.974 138.04ZM347.782 107.224C351.43 107.224 354.502 105.976 356.998 103.48C359.494 100.92 360.742 97.592 360.742 93.496V92.824C360.742 90.072 360.166 87.608 359.014 85.432C357.862 83.256 356.294 81.56 354.31 80.344C352.326 79.128 350.15 78.52 347.782 78.52C343.686 78.52 340.518 79.864 338.278 82.552C336.038 85.176 334.918 88.6 334.918 92.824C334.918 97.112 336.006 100.6 338.182 103.288C340.422 105.912 343.622 107.224 347.782 107.224ZM405.711 115.96C400.463 115.96 396.079 114.936 392.559 112.888C389.039 110.776 386.447 107.992 384.783 104.536C383.119 101.016 382.287 97.176 382.287 93.016C382.287 88.344 383.247 84.248 385.167 80.728C387.151 77.208 389.871 74.52 393.327 72.664C396.783 70.744 400.687 69.784 405.039 69.784C411.823 69.784 416.847 71.672 420.111 75.448C423.439 79.16 425.103 84.408 425.103 91.192C425.103 92.92 425.007 94.712 424.815 96.568H393.135C393.839 100.472 395.215 103.288 397.263 105.016C399.375 106.744 402.287 107.608 405.999 107.608C409.071 107.608 411.599 107.352 413.583 106.84C415.567 106.328 417.391 105.624 419.055 104.728L422.223 112.12C420.623 113.144 418.447 114.04 415.695 114.808C412.943 115.576 409.615 115.96 405.711 115.96ZM415.023 89.368C415.087 85.4 414.223 82.616 412.431 81.016C410.639 79.352 408.079 78.52 404.751 78.52C398.031 78.52 394.159 82.136 393.135 89.368H415.023ZM435.684 70.936H446.052V79.576C447.076 76.632 448.74 74.264 451.044 72.472C453.348 70.68 455.972 69.784 458.916 69.784C460.964 69.784 462.372 69.976 463.14 70.36L461.7 80.824C461.124 80.44 459.876 80.248 457.956 80.248C454.948 80.248 452.196 81.208 449.7 83.128C447.268 85.048 446.052 88.12 446.052 92.344V115H435.684V70.936Z" fill="white"/>
  </svg>
  